<?xml version="1.0" encoding="UTF-8" standalone="no"?>
<!DOCTYPE svg PUBLIC "-//W3C//DTD SVG 1.1//EN"
 "http://www.w3.org/Graphics/SVG/1.1/DTD/svg11.dtd">
<!-- Generated by graphviz version 2.38.0 (20140413.2041)
 -->
<!-- Title: controllers_diagram Pages: 1 -->
<svg width="520pt" height="451pt"
 viewBox="0.00 0.00 519.65 451.00" xmlns="http://www.w3.org/2000/svg" xmlns:xlink="http://www.w3.org/1999/xlink">
<g id="graph0" class="graph" transform="scale(1 1) rotate(0) translate(147.966 239.5)">
<title>controllers_diagram</title>
<polygon fill="none" stroke="none" points="-147.966,211.5 -147.966,-239.5 371.688,-239.5 371.688,211.5 -147.966,211.5"/>
<!-- _diagram_info -->
<g id="node1" class="node"><title>_diagram_info</title>
<text text-anchor="start" x="168.312" y="-219.1" font-family="Times,serif" font-size="13.00">Controllers diagram</text>
<text text-anchor="start" x="168.312" y="-206.1" font-family="Times,serif" font-size="13.00">Date: Jun 15 2016 &#45; 13:38</text>
<text text-anchor="start" x="168.312" y="-193.1" font-family="Times,serif" font-size="13.00">Migration version: 20160529210536</text>
<text text-anchor="start" x="168.312" y="-180.1" font-family="Times,serif" font-size="13.00">Generated by RailRoady 1.4.2</text>
<text text-anchor="start" x="168.312" y="-167.1" font-family="Times,serif" font-size="13.00">http://railroady.prestonlee.com</text>
</g>
<!-- ApplicationController -->
<g id="node2" class="node"><title>ApplicationController</title>
<path fill="none" stroke="black" d="M-131.966,-145C-131.966,-145 41.9658,-145 41.9658,-145 47.9658,-145 53.9658,-151 53.9658,-157 53.9658,-157 53.9658,-223 53.9658,-223 53.9658,-229 47.9658,-235 41.9658,-235 41.9658,-235 -131.966,-235 -131.966,-235 -137.966,-235 -143.966,-229 -143.966,-223 -143.966,-223 -143.966,-157 -143.966,-157 -143.966,-151 -137.966,-145 -131.966,-145"/>
<text text-anchor="middle" x="-45" y="-219.8" font-family="Times,serif" font-size="14.00">ApplicationController</text>
<polyline fill="none" stroke="black" points="-143.966,-213 53.9658,-213 "/>
<polyline fill="none" stroke="black" points="-143.966,-189 53.9658,-189 "/>
<text text-anchor="start" x="-135.966" y="-173.8" font-family="Times,serif" font-size="14.00">configure_permitted_parameters</text>
<polyline fill="none" stroke="black" points="-143.966,-167 53.9658,-167 "/>
<text text-anchor="start" x="-135.966" y="-151.8" font-family="Times,serif" font-size="14.00">_layout</text>
</g>
<!-- HomepageController -->
<g id="node3" class="node"><title>HomepageController</title>
<path fill="none" stroke="black" d="M91.9067,207C91.9067,207 202.093,207 202.093,207 208.093,207 214.093,201 214.093,195 214.093,195 214.093,129 214.093,129 214.093,123 208.093,117 202.093,117 202.093,117 91.9067,117 91.9067,117 85.9067,117 79.9067,123 79.9067,129 79.9067,129 79.9067,195 79.9067,195 79.9067,201 85.9067,207 91.9067,207"/>
<text text-anchor="middle" x="147" y="132.2" font-family="Times,serif" font-size="14.00">HomepageController</text>
<polyline fill="none" stroke="black" points="79.9067,139 214.093,139 "/>
<text text-anchor="start" x="87.9067" y="154.2" font-family="Times,serif" font-size="14.00">index</text>
<polyline fill="none" stroke="black" points="79.9067,161 214.093,161 "/>
<polyline fill="none" stroke="black" points="79.9067,185 214.093,185 "/>
<text text-anchor="start" x="87.9067" y="200.2" font-family="Times,serif" font-size="14.00">_layout</text>
</g>
<!-- LogosController -->
<g id="node4" class="node"><title>LogosController</title>
<path fill="none" stroke="black" d="M-52.2725,111C-52.2725,111 32.2725,111 32.2725,111 38.2725,111 44.2725,105 44.2725,99 44.2725,99 44.2725,-79 44.2725,-79 44.2725,-85 38.2725,-91 32.2725,-91 32.2725,-91 -52.2725,-91 -52.2725,-91 -58.2725,-91 -64.2725,-85 -64.2725,-79 -64.2725,-79 -64.2725,99 -64.2725,99 -64.2725,105 -58.2725,111 -52.2725,111"/>
<text text-anchor="middle" x="-10" y="-75.8" font-family="Times,serif" font-size="14.00">LogosController</text>
<polyline fill="none" stroke="black" points="-64.2725,-69 44.2725,-69 "/>
<text text-anchor="start" x="-56.2725" y="-53.8" font-family="Times,serif" font-size="14.00">index</text>
<text text-anchor="start" x="-56.2725" y="-39.8" font-family="Times,serif" font-size="14.00">destroy</text>
<text text-anchor="start" x="-56.2725" y="-25.8" font-family="Times,serif" font-size="14.00">edit</text>
<text text-anchor="start" x="-56.2725" y="-11.8" font-family="Times,serif" font-size="14.00">create</text>
<text text-anchor="start" x="-56.2725" y="2.2" font-family="Times,serif" font-size="14.00">new</text>
<text text-anchor="start" x="-56.2725" y="16.2" font-family="Times,serif" font-size="14.00">show</text>
<text text-anchor="start" x="-56.2725" y="30.2" font-family="Times,serif" font-size="14.00">update</text>
<polyline fill="none" stroke="black" points="-64.2725,37 44.2725,37 "/>
<polyline fill="none" stroke="black" points="-64.2725,61 44.2725,61 "/>
<text text-anchor="start" x="-56.2725" y="76.2" font-family="Times,serif" font-size="14.00">_layout</text>
<text text-anchor="start" x="-56.2725" y="90.2" font-family="Times,serif" font-size="14.00">logo_params</text>
<text text-anchor="start" x="-56.2725" y="104.2" font-family="Times,serif" font-size="14.00">set_logo</text>
</g>
<!-- PostsController -->
<g id="node5" class="node"><title>PostsController</title>
<path fill="none" stroke="black" d="M92.4414,79C92.4414,79 171.559,79 171.559,79 177.559,79 183.559,73 183.559,67 183.559,67 183.559,-111 183.559,-111 183.559,-117 177.559,-123 171.559,-123 171.559,-123 92.4414,-123 92.4414,-123 86.4414,-123 80.4414,-117 80.4414,-111 80.4414,-111 80.4414,67 80.4414,67 80.4414,73 86.4414,79 92.4414,79"/>
<text text-anchor="middle" x="132" y="-107.8" font-family="Times,serif" font-size="14.00">PostsController</text>
<polyline fill="none" stroke="black" points="80.4414,-101 183.559,-101 "/>
<text text-anchor="start" x="88.4414" y="-85.8" font-family="Times,serif" font-size="14.00">index</text>
<text text-anchor="start" x="88.4414" y="-71.8" font-family="Times,serif" font-size="14.00">destroy</text>
<text text-anchor="start" x="88.4414" y="-57.8" font-family="Times,serif" font-size="14.00">edit</text>
<text text-anchor="start" x="88.4414" y="-43.8" font-family="Times,serif" font-size="14.00">create</text>
<text text-anchor="start" x="88.4414" y="-29.8" font-family="Times,serif" font-size="14.00">new</text>
<text text-anchor="start" x="88.4414" y="-15.8" font-family="Times,serif" font-size="14.00">show</text>
<text text-anchor="start" x="88.4414" y="-1.8" font-family="Times,serif" font-size="14.00">update</text>
<polyline fill="none" stroke="black" points="80.4414,5 183.559,5 "/>
<polyline fill="none" stroke="black" points="80.4414,29 183.559,29 "/>
<text text-anchor="start" x="88.4414" y="44.2" font-family="Times,serif" font-size="14.00">_layout</text>
<text text-anchor="start" x="88.4414" y="58.2" font-family="Times,serif" font-size="14.00">post_params</text>
<text text-anchor="start" x="88.4414" y="72.2" font-family="Times,serif" font-size="14.00">set_post</text>
</g>
</g>
</svg>
