<?xml version="1.0" encoding="UTF-8" standalone="no"?>
<!DOCTYPE svg PUBLIC "-//W3C//DTD SVG 1.1//EN"
 "http://www.w3.org/Graphics/SVG/1.1/DTD/svg11.dtd">
<!-- Generated by graphviz version 2.38.0 (20140413.2041)
 -->
<!-- Title: models_diagram Pages: 1 -->
<svg width="407pt" height="225pt"
 viewBox="0.00 0.00 406.72 225.00" xmlns="http://www.w3.org/2000/svg" xmlns:xlink="http://www.w3.org/1999/xlink">
<g id="graph0" class="graph" transform="scale(1 1) rotate(0) translate(4 221)">
<title>models_diagram</title>
<polygon fill="none" stroke="none" points="-4,4 -4,-221 402.718,-221 402.718,4 -4,4"/>
<!-- _diagram_info -->
<g id="node1" class="node"><title>_diagram_info</title>
<text text-anchor="start" x="8" y="-202.6" font-family="Times,serif" font-size="13.00">Models diagram</text>
<text text-anchor="start" x="8" y="-189.6" font-family="Times,serif" font-size="13.00">Date: Jun 15 2016 &#45; 13:38</text>
<text text-anchor="start" x="8" y="-176.6" font-family="Times,serif" font-size="13.00">Migration version: 20160529210536</text>
<text text-anchor="start" x="8" y="-163.6" font-family="Times,serif" font-size="13.00">Generated by RailRoady 1.4.2</text>
<text text-anchor="start" x="8" y="-150.6" font-family="Times,serif" font-size="13.00">http://railroady.prestonlee.com</text>
</g>
<!-- Customer -->
<g id="node2" class="node"><title>Customer</title>
<ellipse fill="none" stroke="black" cx="269.688" cy="-180.5" rx="44.4923" ry="18"/>
<text text-anchor="middle" x="269.688" y="-176.3" font-family="Times,serif" font-size="14.00">Customer</text>
</g>
<!-- Post -->
<g id="node5" class="node"><title>Post</title>
<ellipse fill="none" stroke="black" cx="269.688" cy="-90" rx="27" ry="18"/>
<text text-anchor="middle" x="269.688" y="-85.8" font-family="Times,serif" font-size="14.00">Post</text>
</g>
<!-- Customer&#45;&gt;Post -->
<g id="edge1" class="edge"><title>Customer&#45;&gt;Post</title>
<path fill="none" stroke="#9550f3" d="M269.688,-154.189C269.688,-142.971 269.688,-129.752 269.688,-118.311"/>
<ellipse fill="none" stroke="#9550f3" cx="269.688" cy="-158.436" rx="4" ry="4"/>
<polygon fill="#9550f3" stroke="#9550f3" points="269.688,-118.011 274.188,-108.011 269.688,-113.011 269.688,-108.011 269.688,-108.011 269.688,-108.011 269.688,-113.011 265.188,-108.011 269.688,-118.011 269.688,-118.011"/>
</g>
<!-- Designer -->
<g id="node3" class="node"><title>Designer</title>
<ellipse fill="none" stroke="black" cx="356.688" cy="-90" rx="42.0611" ry="18"/>
<text text-anchor="middle" x="356.688" y="-85.8" font-family="Times,serif" font-size="14.00">Designer</text>
</g>
<!-- Logo -->
<g id="node4" class="node"><title>Logo</title>
<ellipse fill="none" stroke="black" cx="312.688" cy="-18" rx="28.5497" ry="18"/>
<text text-anchor="middle" x="312.688" y="-13.8" font-family="Times,serif" font-size="14.00">Logo</text>
</g>
<!-- Designer&#45;&gt;Logo -->
<g id="edge2" class="edge"><title>Designer&#45;&gt;Logo</title>
<path fill="none" stroke="#b8b06c" d="M341.867,-65.4214C337.441,-58.3804 332.58,-50.6468 328.116,-43.5454"/>
<ellipse fill="none" stroke="#b8b06c" cx="344.132" cy="-69.0244" rx="4.00002" ry="4.00002"/>
<polygon fill="#b8b06c" stroke="#b8b06c" points="328.059,-43.4545 326.547,-32.5933 325.398,-39.2213 322.737,-34.9881 322.737,-34.9881 322.737,-34.9881 325.398,-39.2213 318.928,-37.3829 328.059,-43.4545 328.059,-43.4545"/>
</g>
<!-- Post&#45;&gt;Logo -->
<g id="edge3" class="edge"><title>Post&#45;&gt;Logo</title>
<path fill="none" stroke="#fe1487" d="M283.745,-66.116C288.09,-59.0421 292.898,-51.2151 297.327,-44.0056"/>
<ellipse fill="none" stroke="#fe1487" cx="281.539" cy="-69.7076" rx="4.00002" ry="4.00002"/>
<polygon fill="#fe1487" stroke="#fe1487" points="297.436,-43.8278 306.505,-37.6624 300.053,-39.5674 302.671,-35.307 302.671,-35.307 302.671,-35.307 300.053,-39.5674 298.836,-32.9516 297.436,-43.8278 297.436,-43.8278"/>
</g>
</g>
</svg>
