<?xml version="1.0" encoding="UTF-8" standalone="no"?>
<!DOCTYPE svg PUBLIC "-//W3C//DTD SVG 1.1//EN"
 "http://www.w3.org/Graphics/SVG/1.1/DTD/svg11.dtd">
<!-- Generated by graphviz version 2.38.0 (20140413.2041)
 -->
<!-- Title: models_diagram Pages: 1 -->
<svg width="656pt" height="705pt"
 viewBox="0.00 0.00 655.97 705.00" xmlns="http://www.w3.org/2000/svg" xmlns:xlink="http://www.w3.org/1999/xlink">
<g id="graph0" class="graph" transform="scale(1 1) rotate(0) translate(4 701)">
<title>models_diagram</title>
<polygon fill="none" stroke="none" points="-4,4 -4,-701 651.966,-701 651.966,4 -4,4"/>
<!-- _diagram_info -->
<g id="node1" class="node"><title>_diagram_info</title>
<text text-anchor="start" x="8" y="-605.6" font-family="Times,serif" font-size="13.00">Models diagram</text>
<text text-anchor="start" x="8" y="-592.6" font-family="Times,serif" font-size="13.00">Date: Jun 15 2016 &#45; 13:38</text>
<text text-anchor="start" x="8" y="-579.6" font-family="Times,serif" font-size="13.00">Migration version: 20160529210536</text>
<text text-anchor="start" x="8" y="-566.6" font-family="Times,serif" font-size="13.00">Generated by RailRoady 1.4.2</text>
<text text-anchor="start" x="8" y="-553.6" font-family="Times,serif" font-size="13.00">http://railroady.prestonlee.com</text>
</g>
<!-- Customer -->
<g id="node2" class="node"><title>Customer</title>
<path fill="none" stroke="black" d="M237.41,-470.5C237.41,-470.5 417.966,-470.5 417.966,-470.5 423.966,-470.5 429.966,-476.5 429.966,-482.5 429.966,-482.5 429.966,-684.5 429.966,-684.5 429.966,-690.5 423.966,-696.5 417.966,-696.5 417.966,-696.5 237.41,-696.5 237.41,-696.5 231.41,-696.5 225.41,-690.5 225.41,-684.5 225.41,-684.5 225.41,-482.5 225.41,-482.5 225.41,-476.5 231.41,-470.5 237.41,-470.5"/>
<text text-anchor="middle" x="327.688" y="-681.3" font-family="Times,serif" font-size="14.00">Customer</text>
<polyline fill="none" stroke="black" points="225.41,-674.5 429.966,-674.5 "/>
<text text-anchor="start" x="233.41" y="-659.3" font-family="Times,serif" font-size="14.00">name :varchar</text>
<text text-anchor="start" x="233.41" y="-645.3" font-family="Times,serif" font-size="14.00">email :varchar</text>
<text text-anchor="start" x="233.41" y="-631.3" font-family="Times,serif" font-size="14.00">encrypted_password :varchar</text>
<text text-anchor="start" x="233.41" y="-617.3" font-family="Times,serif" font-size="14.00">reset_password_token :varchar</text>
<text text-anchor="start" x="233.41" y="-603.3" font-family="Times,serif" font-size="14.00">reset_password_sent_at :datetime</text>
<text text-anchor="start" x="233.41" y="-589.3" font-family="Times,serif" font-size="14.00">remember_created_at :datetime</text>
<text text-anchor="start" x="233.41" y="-575.3" font-family="Times,serif" font-size="14.00">sign_in_count :integer</text>
<text text-anchor="start" x="233.41" y="-561.3" font-family="Times,serif" font-size="14.00">current_sign_in_at :datetime</text>
<text text-anchor="start" x="233.41" y="-547.3" font-family="Times,serif" font-size="14.00">last_sign_in_at :datetime</text>
<text text-anchor="start" x="233.41" y="-533.3" font-family="Times,serif" font-size="14.00">current_sign_in_ip :varchar</text>
<text text-anchor="start" x="233.41" y="-519.3" font-family="Times,serif" font-size="14.00">last_sign_in_ip :varchar</text>
<text text-anchor="start" x="233.41" y="-505.3" font-family="Times,serif" font-size="14.00">created_at :datetime</text>
<text text-anchor="start" x="233.41" y="-491.3" font-family="Times,serif" font-size="14.00">updated_at :datetime</text>
<text text-anchor="start" x="233.41" y="-477.3" font-family="Times,serif" font-size="14.00">id :INTEGER</text>
</g>
<!-- Post -->
<g id="node5" class="node"><title>Post</title>
<path fill="none" stroke="black" d="M242.465,-235.5C242.465,-235.5 412.91,-235.5 412.91,-235.5 418.91,-235.5 424.91,-241.5 424.91,-247.5 424.91,-247.5 424.91,-393.5 424.91,-393.5 424.91,-399.5 418.91,-405.5 412.91,-405.5 412.91,-405.5 242.465,-405.5 242.465,-405.5 236.465,-405.5 230.465,-399.5 230.465,-393.5 230.465,-393.5 230.465,-247.5 230.465,-247.5 230.465,-241.5 236.465,-235.5 242.465,-235.5"/>
<text text-anchor="middle" x="327.688" y="-390.3" font-family="Times,serif" font-size="14.00">Post</text>
<polyline fill="none" stroke="black" points="230.465,-383.5 424.91,-383.5 "/>
<text text-anchor="start" x="238.465" y="-368.3" font-family="Times,serif" font-size="14.00">old_logo_updated_at :datetime</text>
<text text-anchor="start" x="238.465" y="-354.3" font-family="Times,serif" font-size="14.00">title :varchar</text>
<text text-anchor="start" x="238.465" y="-340.3" font-family="Times,serif" font-size="14.00">content :text</text>
<text text-anchor="start" x="238.465" y="-326.3" font-family="Times,serif" font-size="14.00">created_at :datetime</text>
<text text-anchor="start" x="238.465" y="-312.3" font-family="Times,serif" font-size="14.00">updated_at :datetime</text>
<text text-anchor="start" x="238.465" y="-298.3" font-family="Times,serif" font-size="14.00">customer_id :integer</text>
<text text-anchor="start" x="238.465" y="-284.3" font-family="Times,serif" font-size="14.00">old_logo_file_name :varchar</text>
<text text-anchor="start" x="238.465" y="-270.3" font-family="Times,serif" font-size="14.00">old_logo_content_type :varchar</text>
<text text-anchor="start" x="238.465" y="-256.3" font-family="Times,serif" font-size="14.00">old_logo_file_size :integer</text>
<text text-anchor="start" x="238.465" y="-242.3" font-family="Times,serif" font-size="14.00">id :INTEGER</text>
</g>
<!-- Customer&#45;&gt;Post -->
<g id="edge1" class="edge"><title>Customer&#45;&gt;Post</title>
<path fill="none" stroke="#fe4450" d="M327.688,-462.136C327.688,-446.62 327.688,-430.911 327.688,-415.894"/>
<ellipse fill="none" stroke="#fe4450" cx="327.688" cy="-466.298" rx="4" ry="4"/>
<polygon fill="#fe4450" stroke="#fe4450" points="327.688,-415.62 332.188,-405.62 327.688,-410.62 327.688,-405.62 327.688,-405.62 327.688,-405.62 327.688,-410.62 323.188,-405.62 327.688,-415.62 327.688,-415.62"/>
</g>
<!-- Designer -->
<g id="node3" class="node"><title>Designer</title>
<path fill="none" stroke="black" d="M455.41,-207.5C455.41,-207.5 635.966,-207.5 635.966,-207.5 641.966,-207.5 647.966,-213.5 647.966,-219.5 647.966,-219.5 647.966,-421.5 647.966,-421.5 647.966,-427.5 641.966,-433.5 635.966,-433.5 635.966,-433.5 455.41,-433.5 455.41,-433.5 449.41,-433.5 443.41,-427.5 443.41,-421.5 443.41,-421.5 443.41,-219.5 443.41,-219.5 443.41,-213.5 449.41,-207.5 455.41,-207.5"/>
<text text-anchor="middle" x="545.688" y="-418.3" font-family="Times,serif" font-size="14.00">Designer</text>
<polyline fill="none" stroke="black" points="443.41,-411.5 647.966,-411.5 "/>
<text text-anchor="start" x="451.41" y="-396.3" font-family="Times,serif" font-size="14.00">name :varchar</text>
<text text-anchor="start" x="451.41" y="-382.3" font-family="Times,serif" font-size="14.00">email :varchar</text>
<text text-anchor="start" x="451.41" y="-368.3" font-family="Times,serif" font-size="14.00">encrypted_password :varchar</text>
<text text-anchor="start" x="451.41" y="-354.3" font-family="Times,serif" font-size="14.00">reset_password_token :varchar</text>
<text text-anchor="start" x="451.41" y="-340.3" font-family="Times,serif" font-size="14.00">reset_password_sent_at :datetime</text>
<text text-anchor="start" x="451.41" y="-326.3" font-family="Times,serif" font-size="14.00">remember_created_at :datetime</text>
<text text-anchor="start" x="451.41" y="-312.3" font-family="Times,serif" font-size="14.00">sign_in_count :integer</text>
<text text-anchor="start" x="451.41" y="-298.3" font-family="Times,serif" font-size="14.00">current_sign_in_at :datetime</text>
<text text-anchor="start" x="451.41" y="-284.3" font-family="Times,serif" font-size="14.00">last_sign_in_at :datetime</text>
<text text-anchor="start" x="451.41" y="-270.3" font-family="Times,serif" font-size="14.00">current_sign_in_ip :varchar</text>
<text text-anchor="start" x="451.41" y="-256.3" font-family="Times,serif" font-size="14.00">last_sign_in_ip :varchar</text>
<text text-anchor="start" x="451.41" y="-242.3" font-family="Times,serif" font-size="14.00">created_at :datetime</text>
<text text-anchor="start" x="451.41" y="-228.3" font-family="Times,serif" font-size="14.00">updated_at :datetime</text>
<text text-anchor="start" x="451.41" y="-214.3" font-family="Times,serif" font-size="14.00">id :INTEGER</text>
</g>
<!-- Logo -->
<g id="node4" class="node"><title>Logo</title>
<path fill="none" stroke="black" d="M348.748,-0.5C348.748,-0.5 524.628,-0.5 524.628,-0.5 530.628,-0.5 536.628,-6.5 536.628,-12.5 536.628,-12.5 536.628,-158.5 536.628,-158.5 536.628,-164.5 530.628,-170.5 524.628,-170.5 524.628,-170.5 348.748,-170.5 348.748,-170.5 342.748,-170.5 336.748,-164.5 336.748,-158.5 336.748,-158.5 336.748,-12.5 336.748,-12.5 336.748,-6.5 342.748,-0.5 348.748,-0.5"/>
<text text-anchor="middle" x="436.688" y="-155.3" font-family="Times,serif" font-size="14.00">Logo</text>
<polyline fill="none" stroke="black" points="336.748,-148.5 536.628,-148.5 "/>
<text text-anchor="start" x="344.748" y="-133.3" font-family="Times,serif" font-size="14.00">new_logo_updated_at :datetime</text>
<text text-anchor="start" x="344.748" y="-119.3" font-family="Times,serif" font-size="14.00">post_id :integer</text>
<text text-anchor="start" x="344.748" y="-105.3" font-family="Times,serif" font-size="14.00">designer_id :integer</text>
<text text-anchor="start" x="344.748" y="-91.3" font-family="Times,serif" font-size="14.00">title :varchar</text>
<text text-anchor="start" x="344.748" y="-77.3" font-family="Times,serif" font-size="14.00">created_at :datetime</text>
<text text-anchor="start" x="344.748" y="-63.3" font-family="Times,serif" font-size="14.00">updated_at :datetime</text>
<text text-anchor="start" x="344.748" y="-49.3" font-family="Times,serif" font-size="14.00">new_logo_file_name :varchar</text>
<text text-anchor="start" x="344.748" y="-35.3" font-family="Times,serif" font-size="14.00">new_logo_content_type :varchar</text>
<text text-anchor="start" x="344.748" y="-21.3" font-family="Times,serif" font-size="14.00">new_logo_file_size :integer</text>
<text text-anchor="start" x="344.748" y="-7.3" font-family="Times,serif" font-size="14.00">id :INTEGER</text>
</g>
<!-- Designer&#45;&gt;Logo -->
<g id="edge2" class="edge"><title>Designer&#45;&gt;Logo</title>
<path fill="none" stroke="#aceafb" d="M489.738,-199.902C486.642,-193.283 483.552,-186.678 480.508,-180.172"/>
<ellipse fill="none" stroke="#aceafb" cx="491.568" cy="-203.813" rx="4.00002" ry="4.00002"/>
<polygon fill="#aceafb" stroke="#aceafb" points="480.324,-179.778 480.163,-168.813 478.206,-175.249 476.087,-170.72 476.087,-170.72 476.087,-170.72 478.206,-175.249 472.011,-172.627 480.324,-179.778 480.324,-179.778"/>
</g>
<!-- Post&#45;&gt;Logo -->
<g id="edge3" class="edge"><title>Post&#45;&gt;Logo</title>
<path fill="none" stroke="#f38399" d="M370.518,-227.946C377.872,-212.225 385.524,-195.869 392.902,-180.096"/>
<ellipse fill="none" stroke="#f38399" cx="368.734" cy="-231.759" rx="4.00002" ry="4.00002"/>
<polygon fill="#f38399" stroke="#f38399" points="392.974,-179.944 401.287,-172.793 395.092,-175.415 397.211,-170.886 397.211,-170.886 397.211,-170.886 395.092,-175.415 393.135,-168.979 392.974,-179.944 392.974,-179.944"/>
</g>
</g>
</svg>
